<?xml version="1.0" encoding="utf-8"?>
<!-- Generator: Adobe Illustrator 27.9.0, SVG Export Plug-In . SVG Version: 6.00 Build 0)  -->
<svg version="1.1" id="Layer_1" xmlns="http://www.w3.org/2000/svg" xmlns:xlink="http://www.w3.org/1999/xlink" x="0px" y="0px"
	 viewBox="0 0 32 32" style="enable-background:new 0 0 32 32;" xml:space="preserve">
<style type="text/css">
	.st0{fill:#FFFFFF;}
</style>
<path class="st0" d="M32,18c-4.5,0.6-9,1.1-13.6,1.7c0-0.5,0-0.9,0-1.3c0-0.5-0.2-0.9-0.6-1.1c-0.2-0.1-0.4-0.2-0.5-0.2
	c-0.8,0-1.6,0-2.4,0c-0.6,0-1.1,0.5-1.2,1.1c0,0.5,0,1,0,1.5C9.1,19.2,4.6,18.6,0,18c0-0.1,0-0.3,0-0.4c0-3,0-6.1,0-9.1
	c0-1,0.7-1.7,1.7-1.8c0.1,0,0.3,0,0.4,0c9.3,0,18.6,0,27.9,0c0.7,0,1.3,0.1,1.7,0.7C31.8,7.8,32,8.1,32,8.5c0,3.1,0,6.2,0,9.4
	C32,17.9,32,17.9,32,18L32,18z"/>
<path class="st0" d="M30.7,19.4v0.4c0,3,0,6,0,9c0,1-0.7,1.7-1.7,1.7c-8.7,0-17.4,0-26,0c-1,0-1.7-0.6-1.6-1.7c0-3,0-6,0-9
	c0-0.1,0-0.2,0-0.4c0.5,0.1,1,0.1,1.5,0.2c3.1,0.4,6.3,0.8,9.4,1.2c0.4,0,0.8,0.1,1.1,0.1c0.2,0,0.3,0.1,0.3,0.3c0,0.7,0,1.3,0,2
	c0,0.8,0.5,1.3,1.3,1.3c0.7,0,1.4,0,2.1,0c0.8,0,1.2-0.5,1.3-1.3c0-0.7,0-1.4,0-2c0-0.2,0-0.3,0.3-0.3c2.7-0.3,5.4-0.7,8.1-1
	c1.2-0.1,2.4-0.3,3.6-0.5C30.4,19.4,30.5,19.4,30.7,19.4L30.7,19.4z"/>
<path class="st0" d="M16,1.6c1.2,0,2.4,0,3.6,0c1.3,0,2.1,0.8,2.1,2.1c0,0.5,0,1,0,1.5c0,0.2,0,0.3-0.3,0.3c-0.2,0-0.4,0-0.6,0
	c-0.2,0-0.2-0.1-0.2-0.3c0-0.6,0-1.1,0-1.6c0-0.6-0.3-0.9-0.9-0.9c-2.4,0-4.9,0-7.3,0c-0.6,0-0.9,0.3-0.9,0.9c0,0.5,0,1.1,0,1.6
	c0,0.2-0.1,0.3-0.3,0.3c-0.9,0-0.9,0-0.9-0.9c0-0.4,0-0.7,0-1.1c0-1.2,0.8-2,2-2C13.5,1.6,14.8,1.6,16,1.6z"/>
<path class="st0" d="M14.8,18.3h2.4v5.1h-2.4C14.8,23.4,14.8,18.3,14.8,18.3z"/>
</svg>
