<?xml version="1.0" encoding="utf-8"?>
<!-- Generator: Adobe Illustrator 27.9.0, SVG Export Plug-In . SVG Version: 6.00 Build 0)  -->
<svg version="1.1" id="Layer_1" xmlns="http://www.w3.org/2000/svg" xmlns:xlink="http://www.w3.org/1999/xlink" x="0px" y="0px"
	 viewBox="0 0 32 32" style="enable-background:new 0 0 32 32;" xml:space="preserve">
<style type="text/css">
	.st0{fill:#FFFFFF;}
</style>
<path class="st0" d="M25.4,31.9c-3,0-5.6-2.4-5.6-5.8c0.1-2.9,2.5-5.4,5.6-5.4c3.1,0,5.6,2.5,5.6,5.7C31,29.4,28.5,31.9,25.4,31.9
	L25.4,31.9z M23.6,28.3c0,0.2,0.2,0.3,0.4,0.2c0.4-0.2,0.8-0.4,1.2-0.6c0.1,0,0.3,0,0.4,0c0.4,0.2,0.8,0.4,1.1,0.6
	c0.1,0,0.2,0.1,0.3,0c0.1-0.1,0.1-0.2,0.1-0.3c0-0.4-0.1-0.8-0.2-1.2c0-0.2,0-0.4,0.2-0.5c0.3-0.3,0.6-0.5,0.8-0.8
	c0.1-0.1,0.2-0.2,0.2-0.3c-0.1-0.1-0.2-0.2-0.3-0.2c-0.4-0.1-0.8-0.1-1.2-0.2c-0.2,0-0.3-0.1-0.4-0.2c-0.2-0.4-0.4-0.8-0.5-1.1
	c0-0.1-0.2-0.2-0.2-0.2c-0.1,0-0.2,0.1-0.3,0.2c-0.2,0.3-0.4,0.7-0.5,1c-0.1,0.2-0.2,0.3-0.5,0.4c-0.4,0-0.8,0.1-1.1,0.2
	c-0.1,0-0.2,0.1-0.2,0.1c0,0.1,0.1,0.2,0.1,0.3c0.3,0.3,0.5,0.6,0.9,0.8c0.2,0.2,0.2,0.3,0.2,0.6C23.8,27.5,23.7,27.9,23.6,28.3
	L23.6,28.3z"/>
<path class="st0" d="M10.5,30.1c-0.7-0.2-1.4-0.3-2.1-0.5c-2.8-0.8-5.2-2.3-7.2-4.3c-0.1-0.1-0.2-0.3-0.2-0.4c0-0.7-0.1-1.3-0.1-2
	c0-2.7,1.7-5.1,4.3-5.9c0.5-0.2,1.1-0.2,1.7-0.2c0.2,0,0.3,0,0.3,0.2c0.9,3.6,1.8,7.2,2.6,10.8c0.1,0.6,0.3,1.3,0.5,1.9
	C10.5,29.8,10.5,29.9,10.5,30.1L10.5,30.1z"/>
<path class="st0" d="M25.1,19.8c-2.4,0.1-4.2,1.1-5.5,3.1c-1.2,2-1.1,4.1-0.1,6.2c-0.2,0.2-2.2,0.8-2.7,0.8c0.1-0.4,0.2-0.8,0.3-1.2
	c0.9-3.9,1.7-7.7,2.6-11.6c0-0.2,0.1-0.3,0.4-0.3c2,0.1,3.7,0.9,4.9,2.6C25,19.5,25,19.7,25.1,19.8z"/>
<path class="st0" d="M12.2,23.7c0.2-0.9,0.4-1.8,0.6-2.6c0.2-0.7,0.2-1.2-0.4-1.7c-0.5-0.4-0.6-0.9-0.3-1.5c0.1-0.3,0.2-0.6,0.3-0.9
	c0.1-0.2,0.1-0.2,0.3-0.2c0.6,0,1.2,0,1.9,0c0.1,0,0.3,0.1,0.3,0.2c0.2,0.5,0.4,1,0.6,1.5c0,0.1,0,0.3-0.1,0.4
	c-0.3,0.4-0.6,0.7-0.8,1c-0.1,0.1-0.1,0.3-0.1,0.5c0.1,0.4,0.2,0.8,0.2,1.1c0,0.1,0,0.2-0.1,0.3c-0.8,0.6-1.5,1.2-2.3,1.8
	C12.3,23.6,12.3,23.6,12.2,23.7L12.2,23.7z"/>
<path class="st0" d="M11.8,28.7c1.3-1,2.6-2,3.9-3c0.1,0.5,0.2,0.9,0.3,1.3c0,0.1,0,0.3,0.1,0.4c0.2,0.5,0,0.8-0.3,1.1
	c-0.6,0.6-1.1,1.2-1.7,1.8c-0.2,0.2-0.3,0.2-0.4,0c-0.5-0.5-1.1-1-1.6-1.5C12,28.9,11.9,28.8,11.8,28.7z"/>
<path class="st0" d="M11.3,27.9c0.1-0.7,0.3-1.4,0.4-2c0.1-0.5,0.3-0.9,0.8-1.2c0.8-0.5,1.5-1.1,2.3-1.7c0.1,0,0.1-0.1,0.3-0.2
	c0.1,0.5,0.2,0.9,0.3,1.4c0.1,0.4,0,0.7-0.4,1c-1.2,0.9-2.3,1.8-3.4,2.6C11.5,27.8,11.4,27.8,11.3,27.9z"/>
<path class="st0" d="M7.8,7.8c0.1-1,0-2,0.2-3c0.7-3,3.5-5,6.6-4.7c3,0.3,5.3,2.7,5.5,5.7c0.1,1.3,0.1,2.6,0,3.9
	c-0.2,3.4-2.9,5.9-6.3,5.9c-3.2-0.1-5.9-2.7-6-6C7.9,9,7.9,8.4,7.8,7.8C7.9,7.8,7.9,7.8,7.8,7.8L7.8,7.8z"/>
</svg>
