<?xml version="1.0" encoding="utf-8"?>
<!-- Generator: Adobe Illustrator 27.9.0, SVG Export Plug-In . SVG Version: 6.00 Build 0)  -->
<svg version="1.1" id="Layer_1" xmlns="http://www.w3.org/2000/svg" xmlns:xlink="http://www.w3.org/1999/xlink" x="0px" y="0px"
	 viewBox="0 0 32 32" style="enable-background:new 0 0 32 32;" xml:space="preserve">
<style type="text/css">
	.st0{fill:#FFFFFF;}
</style>
<path class="st0" d="M2,32c0-0.1,0-0.2,0-0.3c0-1.5,0-3,0-4.4c0.1-5.1,4-9.6,9-10.4c0.5-0.1,0.9,0,1.3,0.3c2.2,1.6,5.5,1.5,7.7-0.1
	c0.2-0.2,0.4-0.2,0.7-0.2c4.6,0.6,8.6,4.6,9.2,9.2c0.2,1.9,0.1,3.8,0.1,5.8c0,0.1-0.1,0.2-0.2,0.2c-0.1,0-0.2,0-0.3,0
	c-9,0-17.9,0-26.9,0C2.4,32,2.2,32,2,32L2,32z"/>
<path class="st0" d="M22.5,8.6c0,1.1,0,2.2-0.1,3.3c-0.4,2.6-2.1,4.4-4.7,5c-2.4,0.5-4.5,0-6.3-1.6c-1-1-1.6-2.2-1.7-3.6
	c-0.1-2.1-0.1-4.1,0-6.2c0.2-2.8,2.2-4.7,5-5.2c2.3-0.4,4.3,0.1,6,1.7c1.3,1.2,1.7,2.8,1.7,4.5C22.4,7.2,22.4,7.9,22.5,8.6
	C22.4,8.6,22.5,8.6,22.5,8.6L22.5,8.6z"/>
</svg>
