<svg width="24" height="24" viewBox="0 0 24 24" fill="none" xmlns="http://www.w3.org/2000/svg">
<path fill-rule="evenodd" clip-rule="evenodd" d="M11.6279 18.1498H5.26512C5.22567 18.1498 5.18772 18.1334 5.16019 18.1059C5.13191 18.0776 5.11628 18.0404 5.11628 18.001V16.9211C5.11628 16.3035 5.55758 15.7587 6.23777 15.2958C7.45228 14.4668 9.41768 13.9444 11.6279 13.9444C11.936 13.9444 12.186 13.6944 12.186 13.3863C12.186 13.0789 11.936 12.8281 11.6279 12.8281C9.15572 12.8281 6.96707 13.4465 5.60819 14.3731C4.57153 15.08 4 15.9783 4 16.9211V18.001C4 18.3358 4.13321 18.6581 4.3706 18.8955C4.608 19.1321 4.92949 19.2661 5.26512 19.2661H11.6279C11.936 19.2653 12.186 19.0153 12.186 18.7072C12.186 18.3998 11.936 18.1491 11.6279 18.1498Z" fill="#4C4C4D"/>
<path fill-rule="evenodd" clip-rule="evenodd" d="M11.6279 4C9.36859 4 7.53491 5.83367 7.53491 8.09302C7.53491 10.3524 9.36859 12.186 11.6279 12.186C13.8873 12.186 15.721 10.3524 15.721 8.09302C15.721 5.83367 13.8873 4 11.6279 4ZM11.6279 5.11628C13.2711 5.11628 14.6047 6.44986 14.6047 8.09302C14.6047 9.73619 13.2711 11.0698 11.6279 11.0698C9.98477 11.0698 8.65119 9.73619 8.65119 8.09302C8.65119 6.44986 9.98477 5.11628 11.6279 5.11628Z" fill="#4C4C4D"/>
<path fill-rule="evenodd" clip-rule="evenodd" d="M16.0931 13.4424C14.63 13.4424 13.4423 14.6301 13.4423 16.0932C13.4423 17.5562 14.63 18.7447 16.0931 18.7447C17.5561 18.7447 18.7446 17.5562 18.7446 16.0932C18.7446 14.6301 17.5561 13.4424 16.0931 13.4424ZM16.0931 14.5587C16.9399 14.5587 17.6283 15.2463 17.6283 16.0932C17.6283 16.9401 16.9399 17.6284 16.0931 17.6284C15.2462 17.6284 14.5578 16.9401 14.5578 16.0932C14.5578 15.2463 15.2462 14.5587 16.0931 14.5587Z" fill="#4C4C4D"/>
<path fill-rule="evenodd" clip-rule="evenodd" d="M16.6511 13.9991V12.7437C16.6511 12.4356 16.4011 12.1855 16.093 12.1855C15.7849 12.1855 15.5349 12.4356 15.5349 12.7437V13.9999C15.5349 14.3072 15.7849 14.558 16.093 14.558C16.4011 14.5573 16.6511 14.3072 16.6511 13.9991Z" fill="#4C4C4D"/>
<path fill-rule="evenodd" clip-rule="evenodd" d="M17.9676 15.0079L18.8554 14.1194C19.0735 13.9021 19.0735 13.5478 18.8554 13.3305C18.6381 13.1125 18.2839 13.1125 18.0666 13.3305L17.1781 14.2183C16.9608 14.4364 16.9608 14.7899 17.1781 15.0079C17.3961 15.2252 17.7496 15.2252 17.9676 15.0079Z" fill="#4C4C4D"/>
<path fill-rule="evenodd" clip-rule="evenodd" d="M18.1857 16.6505H19.4419C19.75 16.6505 20 16.4004 20 16.0923C20 15.7842 19.75 15.5342 19.4419 15.5342H18.1857C17.8783 15.5342 17.6283 15.7842 17.6283 16.0923C17.6276 16.4004 17.8783 16.6505 18.1857 16.6505Z" fill="#4C4C4D"/>
<path fill-rule="evenodd" clip-rule="evenodd" d="M17.1781 17.9672L18.0666 18.855C18.2839 19.0731 18.6381 19.0731 18.8554 18.855C19.0735 18.6377 19.0735 18.2835 18.8554 18.0662L17.9676 17.1776C17.7496 16.9603 17.3961 16.9603 17.1781 17.1776C16.9608 17.3957 16.9608 17.7492 17.1781 17.9672Z" fill="#4C4C4D"/>
<path fill-rule="evenodd" clip-rule="evenodd" d="M15.5349 18.1861V19.4423C15.5349 19.7503 15.7849 20.0004 16.093 20.0004C16.4011 20.0004 16.6511 19.7503 16.6511 19.4423V18.1861C16.6511 17.8787 16.4011 17.6287 16.093 17.6279C15.7849 17.6279 15.5349 17.8787 15.5349 18.1861Z" fill="#4C4C4D"/>
<path fill-rule="evenodd" clip-rule="evenodd" d="M14.2184 17.1776L13.3306 18.0662C13.1125 18.2835 13.1125 18.6377 13.3306 18.855C13.5479 19.0731 13.9021 19.0731 14.1194 18.855L15.008 17.9672C15.2253 17.7492 15.2253 17.3957 15.008 17.1776C14.7899 16.9603 14.4364 16.9603 14.2184 17.1776Z" fill="#4C4C4D"/>
<path fill-rule="evenodd" clip-rule="evenodd" d="M13.9996 15.5342H12.7442C12.4361 15.5342 12.186 15.7842 12.186 16.0923C12.186 16.4004 12.4361 16.6505 12.7442 16.6505H13.9996C14.3077 16.6505 14.5585 16.4004 14.5578 16.0923C14.5578 15.7842 14.3077 15.5342 13.9996 15.5342Z" fill="#4C4C4D"/>
<path fill-rule="evenodd" clip-rule="evenodd" d="M15.008 14.2183L14.1194 13.3305C13.9021 13.1125 13.5479 13.1125 13.3306 13.3305C13.1125 13.5478 13.1125 13.9021 13.3306 14.1194L14.2184 15.0079C14.4364 15.2252 14.7899 15.2252 15.008 15.0079C15.2253 14.7899 15.2253 14.4364 15.008 14.2183Z" fill="#4C4C4D"/>
</svg>
