<svg width="24" height="24" viewBox="0 0 24 24" fill="none" xmlns="http://www.w3.org/2000/svg">
<path d="M8.18228 16.4072C7.90271 16.4072 7.67603 16.6339 7.67603 16.9135C7.67603 17.193 7.90271 17.4197 8.18228 17.4197H12.0281C12.3076 17.4197 12.5343 17.193 12.5343 16.9135C12.5343 16.6339 12.3076 16.4072 12.0281 16.4072H8.18228Z" fill="#4C4C4D"/>
<path d="M15.8177 11.6875H8.18289C7.90332 11.6875 7.67664 11.9142 7.67664 12.1938C7.67664 12.4733 7.90332 12.7 8.18289 12.7H15.8177C16.0973 12.7 16.3239 12.4733 16.3239 12.1938C16.3239 11.9142 16.0973 11.6875 15.8177 11.6875Z" fill="#4C4C4D"/>
<path d="M16.3245 14.5541C16.3245 14.2745 16.0978 14.0479 15.8183 14.0479H8.18289C7.90332 14.0479 7.67664 14.2745 7.67664 14.5541C7.67664 14.8337 7.90332 15.0604 8.18289 15.0604H15.8177C16.0973 15.0604 16.3245 14.8337 16.3245 14.5541Z" fill="#4C4C4D"/>
<path d="M17.3719 5.64358H12.5158C12.2362 5.64358 12.0096 5.87027 12.0096 6.14983C12.0096 6.42939 12.2362 6.65608 12.5158 6.65608H17.3719C17.9147 6.65608 18.3562 7.09483 18.3562 7.63483V18.3848C18.3562 18.9276 17.9147 19.3691 17.3719 19.3691H6.62811C6.0853 19.3691 5.64374 18.9276 5.64374 18.3848V7.63539C5.64374 7.09539 6.0853 6.65664 6.62811 6.65664H9.75674V8.35877C9.75674 8.56127 9.59249 8.72552 9.38999 8.72552C9.18749 8.72552 9.02324 8.56127 9.02324 8.35877V7.83339C9.02324 7.55383 8.79655 7.32714 8.51699 7.32714C8.23743 7.32714 8.01074 7.55383 8.01074 7.83339V8.35933C8.01074 9.12039 8.63005 9.73914 9.39055 9.73914C10.1511 9.73914 10.7704 9.11983 10.7704 8.35933V5.37695C10.7704 4.40777 9.98174 3.61914 9.01255 3.61914C8.04336 3.61914 7.25418 4.40777 7.25418 5.37695V5.64414H6.62811C5.52674 5.64414 4.63068 6.53795 4.63068 7.63595V18.3848C4.63068 19.4861 5.52674 20.3822 6.62811 20.3822H17.3719C18.4732 20.3822 19.3693 19.4861 19.3693 18.3848V7.63539C19.3693 6.53739 18.4732 5.64358 17.3719 5.64358ZM8.26724 5.37695C8.26724 4.96633 8.60136 4.6322 9.01143 4.6322C9.42205 4.6322 9.75618 4.96633 9.75618 5.37695V5.64414H8.26724V5.37695Z" fill="#4C4C4D"/>
</svg>
