<svg width="24" height="24" viewBox="0 0 24 24" fill="none" xmlns="http://www.w3.org/2000/svg">
<path d="M12.0003 6.84375C10.7079 6.84375 9.65649 7.8952 9.65649 9.1876V10.5939C8.88105 10.5939 8.25018 11.2248 8.25018 12.0002V14.8128C8.25018 15.5883 8.88105 16.2191 9.65649 16.2191H14.3442C15.1196 16.2191 15.7505 15.5883 15.7505 14.8128V12.0002C15.7505 11.2248 15.1196 10.5939 14.3442 10.5939V9.1876C14.3442 7.8952 13.2927 6.84375 12.0003 6.84375ZM14.813 12.0002V14.8128C14.813 15.0713 14.6027 15.2816 14.3442 15.2816H9.65649C9.39801 15.2816 9.18772 15.0713 9.18772 14.8128V12.0002C9.18772 11.7417 9.39801 11.5314 9.65649 11.5314H14.3442C14.6027 11.5314 14.813 11.7418 14.813 12.0002ZM10.594 10.5939V9.1876C10.594 8.41216 11.2249 7.78129 12.0003 7.78129C12.7758 7.78129 13.4066 8.41216 13.4066 9.1876V10.5939H10.594Z" fill="#4C4C4D"/>
<path d="M12.0003 12.4688C11.7414 12.4688 11.5316 12.6786 11.5316 12.9375V13.8751C11.5316 14.1339 11.7414 14.3438 12.0003 14.3438C12.2592 14.3438 12.4691 14.1339 12.4691 13.8751V12.9375C12.4691 12.6786 12.2592 12.4688 12.0003 12.4688Z" fill="#4C4C4D"/>
<path d="M17.9572 17.2943C19.2781 15.8176 20.0007 13.9552 20.0007 12.0003C20.0007 7.59518 16.4052 4 12.0003 4C7.59518 4 4 7.59543 4 12.0003C4 16.1365 7.18894 19.6229 11.2605 19.998C11.2752 19.9993 11.2897 20 11.3041 20C11.5436 20 11.7479 19.8174 11.7703 19.5742C11.7941 19.3164 11.6043 19.0881 11.3466 19.0644C7.75272 18.7334 4.93754 15.6304 4.93754 12.0003C4.93754 8.10589 8.10589 4.93754 12.0003 4.93754C15.8948 4.93754 19.0631 8.10589 19.0631 12.0003C19.0631 13.7051 18.4376 15.332 17.2931 16.6302L16.6409 15.978C16.526 15.8631 16.3598 15.8159 16.2017 15.8532C16.0436 15.8905 15.9161 16.0071 15.8647 16.1612L14.8703 19.1444C14.8142 19.3128 14.858 19.4986 14.9835 19.6241C15.1095 19.7501 15.2954 19.7933 15.4633 19.7374L18.4465 18.7429C18.6006 18.6916 18.7171 18.5641 18.7544 18.4059C18.7918 18.2478 18.7446 18.0816 18.6297 17.9668L17.9572 17.2943ZM16.0562 18.5515L16.5143 17.1773L17.4305 18.0934L16.0562 18.5515Z" fill="#4C4C4D"/>
</svg>
