<svg width="24" height="24" viewBox="0 0 24 24" fill="none" xmlns="http://www.w3.org/2000/svg">
<path fill-rule="evenodd" clip-rule="evenodd" d="M5.25 7.07812C5.48299 7.07812 5.67188 7.26701 5.67188 7.5V13.125C5.67188 13.358 5.48299 13.5469 5.25 13.5469C5.01701 13.5469 4.82812 13.358 4.82812 13.125V7.5C4.82812 7.26701 5.01701 7.07812 5.25 7.07812Z" fill="#4C4C4D"/>
<path fill-rule="evenodd" clip-rule="evenodd" d="M12 15.7979C11.0397 15.7979 10.0945 16.0375 9.25013 16.4949C8.40576 16.9524 7.68886 17.6133 7.16436 18.4178C7.03711 18.6129 6.77573 18.668 6.58055 18.5408C6.38538 18.4135 6.33031 18.1521 6.45757 17.957C7.05872 17.0349 7.88041 16.2774 8.84822 15.7531C9.81601 15.2287 10.8993 14.9541 12 14.9541C13.1007 14.9541 14.184 15.2287 15.1518 15.7531C16.1197 16.2774 16.9413 17.0349 17.5425 17.957C17.6697 18.1521 17.6147 18.4135 17.4195 18.5408C17.2243 18.668 16.963 18.6129 16.8357 18.4178C16.3112 17.6133 15.5943 16.9524 14.7499 16.4949C13.9055 16.0375 12.9604 15.7979 12 15.7979Z" fill="#4C4C4D"/>
<path fill-rule="evenodd" clip-rule="evenodd" d="M11.8666 4.84978C11.9532 4.82091 12.0468 4.82091 12.1334 4.84978L18.8834 7.09978C19.0557 7.1572 19.1719 7.31841 19.1719 7.5C19.1719 7.68159 19.0557 7.8428 18.8834 7.90022L12.1334 10.1502C12.0468 10.1791 11.9532 10.1791 11.8666 10.1502L5.11659 7.90022C4.94432 7.8428 4.82812 7.68159 4.82812 7.5C4.82812 7.31841 4.94432 7.1572 5.11659 7.09978L11.8666 4.84978ZM6.58409 7.5L12 9.30529L17.4159 7.5L12 5.6947L6.58409 7.5Z" fill="#4C4C4D"/>
<path fill-rule="evenodd" clip-rule="evenodd" d="M9.381 8.46816C9.55285 8.62551 9.5646 8.89236 9.40722 9.0642C8.94653 9.5673 8.64216 10.1936 8.53119 10.8667C8.42024 11.5397 8.5075 12.2306 8.78233 12.8549C9.05717 13.4793 9.50773 14.0102 10.0791 14.3829C10.6504 14.7556 11.3179 14.9539 12 14.9539C12.6821 14.9539 13.3496 14.7556 13.9209 14.3829C14.4923 14.0102 14.9428 13.4793 15.2177 12.8549C15.4925 12.2306 15.5798 11.5397 15.4688 10.8667C15.3578 10.1936 15.0535 9.5673 14.5928 9.0642C14.4354 8.89236 14.4472 8.62551 14.619 8.46816C14.7908 8.31081 15.0577 8.32255 15.215 8.49439C15.7863 9.1182 16.1637 9.89479 16.3013 10.7294C16.4389 11.5641 16.3307 12.4206 15.9899 13.1949C15.6491 13.969 15.0904 14.6274 14.382 15.0896C13.6735 15.5517 12.8459 15.7976 12 15.7976C11.1541 15.7976 10.3265 15.5517 9.61804 15.0896C8.90957 14.6274 8.35091 13.969 8.01011 13.1949C7.6693 12.4206 7.5611 11.5641 7.69868 10.7294C7.83627 9.89479 8.2137 9.1182 8.78498 8.49439C8.94231 8.32255 9.20916 8.31081 9.381 8.46816Z" fill="#4C4C4D"/>
</svg>
