<svg width="24" height="24" viewBox="0 0 24 24" fill="none" xmlns="http://www.w3.org/2000/svg">
<path d="M7.17331 16.5397C7.17331 16.5397 7.22665 16.5397 7.24665 16.5397L9.19998 16.3597C9.47331 16.3331 9.72665 16.2131 9.91998 16.0197L17.2933 8.64641C17.64 8.29974 17.8333 7.83974 17.8333 7.35307C17.8333 6.86641 17.64 6.40641 17.2933 6.05974L16.82 5.58641C16.1266 4.89307 14.92 4.89307 14.2266 5.58641L13.2866 6.52641L6.85998 12.9531C6.66665 13.1464 6.54665 13.3997 6.52665 13.6731L6.34665 15.6264C6.32665 15.8731 6.41331 16.1131 6.58665 16.2931C6.74665 16.4531 6.95331 16.5397 7.17331 16.5397ZM15.5266 6.04641C15.74 6.04641 15.9533 6.12641 16.1133 6.29307L16.5866 6.76641C16.7466 6.92641 16.8333 7.13307 16.8333 7.35307C16.8333 7.57307 16.7466 7.78641 16.5866 7.93974L16 8.52641L14.3533 6.87974L14.94 6.29307C15.1 6.13307 15.3133 6.04641 15.5266 6.04641ZM7.51998 13.7664C7.51998 13.7264 7.53998 13.6931 7.56665 13.6664L13.64 7.58641L15.2866 9.23307L9.21331 15.3064C9.21331 15.3064 9.14665 15.3531 9.11331 15.3531L7.35998 15.5131L7.51998 13.7597V13.7664ZM19.1666 18.6664C19.1666 18.9397 18.94 19.1664 18.6666 19.1664H5.33331C5.05998 19.1664 4.83331 18.9397 4.83331 18.6664C4.83331 18.3931 5.05998 18.1664 5.33331 18.1664H18.6666C18.94 18.1664 19.1666 18.3931 19.1666 18.6664Z" fill="#4C4C4D"/>
</svg>
