<svg width="24" height="24" viewBox="0 0 24 24" fill="none" xmlns="http://www.w3.org/2000/svg">
<path d="M17.2125 14.0889C16.8593 13.3524 15.5955 12.3302 14.3745 11.3424C13.6935 10.7919 13.05 10.2714 12.6398 9.86117C12.537 9.75767 12.3833 9.72466 12.2475 9.77342C11.9948 9.86494 11.8388 9.93542 11.7158 9.99016C11.5283 10.0742 11.4653 10.1027 11.2125 10.1282C11.1008 10.1394 11.0003 10.1994 10.938 10.2924C10.4078 11.0851 9.85878 11.0176 9.49203 10.8947C9.37503 10.8557 9.35404 10.8054 9.34279 10.7574C9.26404 10.4282 9.6593 9.66166 10.1715 9.1494C11.3903 7.9299 12.0188 7.62464 13.3463 8.2179C14.8523 8.89139 16.3613 9.41866 16.3763 9.4239C16.5735 9.49214 16.7858 9.38864 16.854 9.19289C16.9215 8.99714 16.8188 8.78339 16.623 8.71515C16.608 8.70991 15.129 8.19315 13.653 7.53239C11.9333 6.76363 10.9898 7.26988 9.642 8.6184C9.129 9.1314 8.43224 10.1694 8.61224 10.9307C8.68948 11.2547 8.9175 11.4947 9.25648 11.6064C10.1062 11.8869 10.8817 11.6184 11.4592 10.8519C11.6977 10.8152 11.8275 10.7612 12.0225 10.6734C12.093 10.6419 12.1755 10.6052 12.285 10.5609C12.714 10.9637 13.293 11.4324 13.9027 11.9252C15.0052 12.8169 16.2555 13.8279 16.5367 14.4129C16.6755 14.7017 16.5262 14.8899 16.425 14.9762C16.2765 15.1037 16.0732 15.1442 15.963 15.0669C15.8415 14.9836 15.6833 14.9784 15.558 15.0534C15.432 15.1284 15.3615 15.2701 15.3773 15.4157C15.4027 15.6542 15.1845 15.7907 15.09 15.8379C14.85 15.9594 14.5995 15.9384 14.5057 15.8514C14.4007 15.7539 14.25 15.7254 14.1165 15.7749C13.983 15.8252 13.89 15.9482 13.8765 16.0906C13.854 16.3366 13.6717 16.5729 13.434 16.6651C13.3192 16.7086 13.1527 16.7349 13.0035 16.5984C12.9105 16.5144 12.7815 16.4821 12.6607 16.5114C12.5385 16.5414 12.4402 16.6299 12.3975 16.7476C12.3832 16.7851 12.351 16.8751 12 16.8751C11.7502 16.8751 11.301 16.7064 11.0812 16.5609C10.818 16.3876 9.16722 15.1561 7.74149 13.9621C7.54124 13.7934 7.19474 13.4319 6.88874 13.1124C6.61723 12.8289 6.36899 12.5716 6.24148 12.4636C6.08173 12.3286 5.84548 12.3489 5.71273 12.5079C5.57924 12.6661 5.59872 12.9031 5.75699 13.0366C5.87325 13.1349 6.09825 13.3726 6.34649 13.6314C6.681 13.9809 7.02673 14.3424 7.25925 14.5374C8.65576 15.7066 10.3343 16.9689 10.6687 17.1886C10.9448 17.3701 11.5395 17.6251 12 17.6251C12.3697 17.6251 12.654 17.5404 12.8512 17.3746C13.1152 17.4774 13.4153 17.4781 13.704 17.3656C14.0453 17.2336 14.3257 16.9674 14.4847 16.6449C14.7802 16.7079 15.1185 16.6636 15.426 16.5092C15.7267 16.3577 15.9442 16.1259 16.0522 15.8551C16.3507 15.8709 16.6582 15.7651 16.9125 15.5469C17.343 15.1787 17.4615 14.6057 17.2125 14.0889Z" fill="#4C4C4D"/>
<path d="M10.5 7.875H7.12501C6.91801 7.875 6.75 8.04301 6.75 8.25001C6.75 8.45701 6.91801 8.62502 7.12501 8.62502H10.5C10.707 8.62502 10.875 8.45701 10.875 8.25001C10.875 8.04301 10.707 7.875 10.5 7.875Z" fill="#4C4C4D"/>
<path d="M18.3112 13.2904C18.195 13.1187 17.9625 13.0715 17.7908 13.1885L16.6943 13.9249C16.5225 14.0404 16.4768 14.2737 16.5923 14.4454C16.665 14.5527 16.7835 14.6112 16.9043 14.6112C16.9756 14.6112 17.0483 14.5909 17.1128 14.5475L18.2093 13.811C18.381 13.6954 18.4267 13.4622 18.3112 13.2904Z" fill="#4C4C4D"/>
<path d="M15.9832 15.0797C15.7148 14.8682 14.514 13.639 13.7715 12.865C13.6282 12.715 13.3905 12.7097 13.2412 12.8537C13.0912 12.997 13.0867 13.2347 13.23 13.384C13.4227 13.585 15.123 15.3573 15.5182 15.6693C15.5865 15.7233 15.669 15.7495 15.75 15.7495C15.8602 15.7495 15.9705 15.7 16.0455 15.6063C16.1738 15.4442 16.146 15.208 15.9832 15.0797Z" fill="#4C4C4D"/>
<path d="M14.4847 15.8323C14.0355 15.473 12.9068 14.2737 12.6517 13.9963C12.5107 13.8433 12.2745 13.8343 12.1215 13.9738C11.9692 14.114 11.9587 14.3518 12.099 14.504C12.1125 14.5183 13.4595 15.9725 14.016 16.418C14.085 16.4728 14.1682 16.4998 14.25 16.4998C14.3595 16.4998 14.469 16.451 14.5432 16.3595C14.6723 16.1975 14.646 15.9612 14.4847 15.8323Z" fill="#4C4C4D"/>
<path d="M12.9923 16.5875C12.4575 16.1367 11.3633 14.972 11.1495 14.7432C11.0078 14.5917 10.77 14.5835 10.6193 14.7252C10.4678 14.867 10.4603 15.1039 10.6013 15.2555C10.9088 15.5847 11.9558 16.6947 12.5085 17.1612C12.579 17.2205 12.6645 17.2497 12.75 17.2497C12.8565 17.2497 12.963 17.204 13.0373 17.1162C13.1708 16.9572 13.1505 16.721 12.9923 16.5875Z" fill="#4C4C4D"/>
<path d="M7.383 7.22752C6.74024 6.61851 4.17 6.42125 3.39751 6.37551C3.29102 6.37027 3.19276 6.4055 3.11777 6.47676C3.04275 6.54725 3 6.64625 3 6.74975V13.4997C3 13.7067 3.16801 13.8748 3.37501 13.8748H5.62501C5.78701 13.8748 5.93101 13.7705 5.98125 13.616C6.03599 13.448 7.32826 9.48202 7.49849 7.53201C7.50826 7.418 7.46625 7.3055 7.383 7.22752ZM5.35125 13.1248H3.74999V7.15176C4.95525 7.247 6.25575 7.454 6.72825 7.6835C6.52951 9.326 5.63025 12.2442 5.35125 13.1248Z" fill="#4C4C4D"/>
<path d="M20.625 7.125C17.6805 7.125 16.047 7.87875 15.9788 7.91025C15.8813 7.95599 15.8085 8.04075 15.7785 8.14351C15.7485 8.24627 15.7635 8.35652 15.8197 8.448C16.2832 9.19426 17.7345 13.3388 18.0135 14.3497C18.0585 14.5125 18.2063 14.625 18.375 14.625H20.625C20.832 14.625 21 14.457 21 14.25V7.49998C21 7.29224 20.832 7.125 20.625 7.125ZM20.25 13.875H18.6555C18.3 12.717 17.25 9.69749 16.6643 8.44951C17.2365 8.25527 18.4658 7.9215 20.25 7.87952V13.875Z" fill="#4C4C4D"/>
</svg>
