<svg width="24" height="24" viewBox="0 0 24 24" fill="none" xmlns="http://www.w3.org/2000/svg">
<path fill-rule="evenodd" clip-rule="evenodd" d="M6.9375 13.0271C5.32594 12.6457 4.125 11.1962 4.125 9.46875C4.125 7.74131 5.32594 6.29175 6.9375 5.91038V5.8125C6.9375 4.88044 7.69294 4.125 8.625 4.125H15.1843C15.6596 4.125 16.113 4.32581 16.4331 4.67738L18.8738 7.36219C19.1561 7.67269 19.3125 8.07769 19.3125 8.49731V18.1875C19.3125 18.6353 19.1348 19.0644 18.8181 19.3806C18.5019 19.6973 18.0728 19.875 17.625 19.875H8.625C8.17725 19.875 7.74806 19.6973 7.43194 19.3806C7.11525 19.0644 6.9375 18.6353 6.9375 18.1875V13.0271ZM7.21875 7.0005C7.12256 7.02187 7.02919 7.04944 6.9375 7.0815C5.95481 7.42969 5.25 8.36737 5.25 9.46875C5.25 10.5701 5.95481 11.5078 6.9375 11.856C7.20131 11.9494 7.48537 12 7.78125 12C7.87631 12 7.97025 11.9949 8.0625 11.9843C9.13969 11.865 10.0138 11.0691 10.2495 10.0312H8.34375C8.04562 10.0312 7.75931 9.91256 7.54837 9.70163C7.33744 9.49069 7.21875 9.20437 7.21875 8.90625V7.0005ZM10.2495 8.90625C10.0346 7.96069 9.28931 7.21537 8.34375 7.0005V8.90625H10.2495ZM14.25 5.25H8.625C8.3145 5.25 8.0625 5.502 8.0625 5.8125V5.82319C9.94913 5.96719 11.4375 7.54556 11.4375 9.46875C11.4375 11.3919 9.94913 12.9703 8.0625 13.1143V18.1875C8.0625 18.3366 8.12156 18.48 8.22731 18.5852C8.3325 18.6909 8.47594 18.75 8.625 18.75H17.625C17.7741 18.75 17.9175 18.6909 18.0227 18.5852C18.1284 18.48 18.1875 18.3366 18.1875 18.1875V9.1875H15.9375C15.0054 9.1875 14.25 8.43206 14.25 7.5V5.25ZM17.0625 17.0625C17.0625 17.373 16.8105 17.625 16.5 17.625C16.1895 17.625 15.9375 17.373 15.9375 17.0625V13.125C15.9375 12.8145 16.1895 12.5625 16.5 12.5625C16.8105 12.5625 17.0625 12.8145 17.0625 13.125V17.0625ZM10.3125 17.0625C10.3125 17.373 10.0605 17.625 9.75 17.625C9.4395 17.625 9.1875 17.373 9.1875 17.0625V16.5C9.1875 16.1895 9.4395 15.9375 9.75 15.9375C10.0605 15.9375 10.3125 16.1895 10.3125 16.5V17.0625ZM12.5625 17.0625C12.5625 17.373 12.3105 17.625 12 17.625C11.6895 17.625 11.4375 17.373 11.4375 17.0625V14.8125C11.4375 14.502 11.6895 14.25 12 14.25C12.3105 14.25 12.5625 14.502 12.5625 14.8125V17.0625ZM14.8125 17.0625C14.8125 17.373 14.5605 17.625 14.25 17.625C13.9395 17.625 13.6875 17.373 13.6875 17.0625V15.375C13.6875 15.0645 13.9395 14.8125 14.25 14.8125C14.5605 14.8125 14.8125 15.0645 14.8125 15.375V17.0625ZM17.9901 8.0625L15.6006 5.43394C15.5381 5.36531 15.4605 5.31412 15.375 5.28319V7.5C15.375 7.8105 15.627 8.0625 15.9375 8.0625H17.9901Z" fill="#4C4C4D" stroke="white" stroke-width="0.1"/>
</svg>
