<svg width="24" height="24" viewBox="0 0 24 24" fill="none" xmlns="http://www.w3.org/2000/svg">
<path d="M10.6473 15.9502H9.3195C7.48617 15.9502 6 17.4364 6 19.2697V20H17.9502V19.2697C17.9502 17.4364 16.464 15.9502 14.6307 15.9502H13.3029" stroke="#4C4C4D" stroke-width="0.8" stroke-miterlimit="10" stroke-linecap="round" stroke-linejoin="round"/>
<path d="M15.6265 10.6396C15.6265 8.62302 13.9917 6.9882 11.9751 6.9882C9.95843 6.9882 8.32361 8.62302 8.32361 10.6396" stroke="#4C4C4D" stroke-width="0.8" stroke-miterlimit="10" stroke-linecap="round" stroke-linejoin="round"/>
<path d="M8.32361 10.6383C8.32361 11.936 9.00165 13.0733 10.022 13.7202C10.4086 13.9653 10.6473 14.3864 10.6473 14.8441V15.9495C10.6473 16.6829 11.2417 17.2773 11.9751 17.2773C12.7084 17.2773 13.3029 16.6829 13.3029 15.9495V14.8441C13.3029 14.3864 13.5415 13.9653 13.9281 13.7202C14.9485 13.0733 15.6265 11.936 15.6265 10.6383" stroke="#4C4C4D" stroke-width="0.8" stroke-miterlimit="10" stroke-linecap="round" stroke-linejoin="round"/>
<path d="M10.6473 14.9537V15.9495C10.6473 16.6829 11.2418 17.2773 11.9751 17.2773C12.7085 17.2773 13.3029 16.6829 13.3029 15.9495V14.9537H10.6473Z" stroke="#4C4C4D" stroke-width="0.8" stroke-miterlimit="10" stroke-linecap="round" stroke-linejoin="round"/>
<path d="M11.9751 4.99609V4.00024" stroke="#4C4C4D" stroke-width="0.8" stroke-miterlimit="10" stroke-linecap="round" stroke-linejoin="round"/>
<path d="M9.15356 5.75293L8.65564 4.89049" stroke="#4C4C4D" stroke-width="0.8" stroke-miterlimit="10" stroke-linecap="round" stroke-linejoin="round"/>
<path d="M7.08796 7.81738L6.22552 7.31946" stroke="#4C4C4D" stroke-width="0.8" stroke-miterlimit="10" stroke-linecap="round" stroke-linejoin="round"/>
<path d="M16.8622 7.81738L17.7247 7.31946" stroke="#4C4C4D" stroke-width="0.8" stroke-miterlimit="10" stroke-linecap="round" stroke-linejoin="round"/>
<path d="M14.7967 5.75293L15.2946 4.89049" stroke="#4C4C4D" stroke-width="0.8" stroke-miterlimit="10" stroke-linecap="round" stroke-linejoin="round"/>
<path d="M11.9751 14.9551V11.6356" stroke="#4C4C4D" stroke-width="0.8" stroke-miterlimit="10" stroke-linecap="round" stroke-linejoin="round"/>
<path d="M12.9709 10.6389L11.9751 11.6348L10.9792 10.6389" stroke="#4C4C4D" stroke-width="0.8" stroke-miterlimit="10" stroke-linecap="round" stroke-linejoin="round"/>
</svg>
