<svg width="24" height="24" viewBox="0 0 24 24" fill="none" xmlns="http://www.w3.org/2000/svg">
<path d="M19.8529 19.143L15.6452 14.9353C16.6788 13.7352 17.2442 12.2227 17.2442 10.6226C17.2442 8.85377 16.5553 7.19078 15.3044 5.93988C14.054 4.68898 12.3911 4 10.6221 4C8.85306 4 7.19018 4.68898 5.93978 5.93988C4.68888 7.19078 4 8.85377 4 10.6226C4 12.3914 4.68888 14.0544 5.93988 15.3054C6.14888 15.5143 6.37064 15.7086 6.59722 15.8814C6.89239 16.1087 7.21107 16.3128 7.54481 16.4885C8.50827 16.9945 9.56494 17.2475 10.622 17.2475C11.679 17.2475 12.7361 16.9944 13.6998 16.4883C14.0348 16.312 14.3535 16.1082 14.6465 15.8829C14.7448 15.8074 14.8412 15.7281 14.9359 15.6464L19.1427 19.8531C19.2408 19.9512 19.3693 20.0002 19.4978 20.0002C19.6264 20.0002 19.7549 19.9512 19.853 19.8531C20.049 19.657 20.049 19.3391 19.8529 19.143ZM13.2324 15.5994C11.5979 16.4578 9.64629 16.4579 8.01223 15.5996C7.72961 15.4509 7.45964 15.2778 7.20816 15.0843C7.01522 14.9371 6.82741 14.7725 6.65005 14.5952C5.58886 13.534 5.00434 12.1231 5.00434 10.6225C5.00434 9.12192 5.58876 7.71113 6.65005 6.64985C7.71083 5.58866 9.12142 5.00424 10.6221 5.00424C12.1228 5.00424 13.5334 5.58866 14.5942 6.64995C15.6553 7.71113 16.2399 9.12192 16.2399 10.6225C16.2399 12.1231 15.6554 13.5339 14.5942 14.5952C14.4181 14.7712 14.2299 14.9364 14.0345 15.0865C13.7866 15.2772 13.5165 15.4499 13.2324 15.5994Z" fill="#4C4C4D"/>
<path d="M10.6221 10.882C12.0066 10.882 13.133 9.75568 13.133 8.3712C13.133 6.98672 12.0066 5.86035 10.6221 5.86035C9.23763 5.86035 8.11127 6.98672 8.11127 8.3712C8.11127 9.75568 9.23763 10.882 10.6221 10.882ZM10.6221 6.86469C11.4528 6.86469 12.1286 7.54051 12.1286 8.3712C12.1286 9.20189 11.4528 9.87771 10.6221 9.87771C9.79142 9.87771 9.11561 9.20189 9.11561 8.3712C9.11561 7.54051 9.79142 6.86469 10.6221 6.86469Z" fill="#4C4C4D"/>
<path d="M14.8087 13.3989C14.8087 13.371 14.8064 13.343 14.8018 13.3154C14.683 12.6103 14.3113 11.9962 13.7267 11.5398C13.1392 11.0812 12.3277 10.9707 11.6071 11.2527C11.4467 11.3161 11.2748 11.3719 11.0951 11.419C10.7834 11.5011 10.4556 11.5011 10.1452 11.4179C9.96458 11.3702 9.79435 11.3148 9.63576 11.2517C8.91575 10.9715 8.10415 11.082 7.51711 11.5402C6.93128 11.9986 6.55967 12.6136 6.44237 13.3186C6.39687 13.5921 6.58177 13.8509 6.85535 13.8964C6.88327 13.901 6.91099 13.9032 6.93831 13.9032C7.17945 13.9032 7.39227 13.729 7.43305 13.4833C7.50948 13.024 7.746 12.6362 8.13558 12.3314C8.44442 12.0902 8.8796 12.0352 9.26787 12.1862C9.4604 12.2628 9.66931 12.331 9.88705 12.3885C10.3643 12.5162 10.8706 12.5168 11.3502 12.3902C11.5678 12.3334 11.7785 12.2649 11.9746 12.1873C12.3647 12.0346 12.7992 12.0899 13.1086 12.3314C13.4937 12.6322 13.7294 13.0151 13.8092 13.4695C13.843 13.714 14.0528 13.9016 14.3065 13.9016C14.5838 13.9016 14.8087 13.6763 14.8087 13.3989Z" fill="#4C4C4D"/>
</svg>
