<svg width="24" height="24" viewBox="0 0 24 24" fill="none" xmlns="http://www.w3.org/2000/svg">
<path d="M5.64525 13.1416C6.93794 13.1416 7.98955 12.09 7.98955 10.7973C7.98955 9.50463 6.93794 8.45302 5.64525 8.45302C4.35255 8.45302 3.30094 9.50463 3.30094 10.7973C3.30094 12.09 4.35255 13.1416 5.64525 13.1416ZM5.64525 9.00168C6.63866 9.00168 7.44504 9.80806 7.44504 10.8015C7.44504 11.7949 6.63866 12.6013 5.64525 12.6013C4.65183 12.6013 3.84545 11.7949 3.84545 10.8015C3.84545 9.80806 4.65183 9.00168 5.64525 9.00168ZM18.5472 13.1416C19.8399 13.1416 20.8915 12.09 20.8915 10.7973C20.8915 9.50463 19.8399 8.45302 18.5472 8.45302C17.2545 8.45302 16.2029 9.50463 16.2029 10.7973C16.2029 12.09 17.2545 13.1416 18.5472 13.1416ZM18.5472 9.00168C19.5406 9.00168 20.347 9.80806 20.347 10.8015C20.347 11.7949 19.5406 12.6013 18.5472 12.6013C17.5538 12.6013 16.7516 11.7907 16.7516 10.7973C16.7516 9.8039 17.5538 9.00168 18.5472 9.00168ZM19.6196 13.5407H17.479C17.0716 13.5407 16.6851 13.6363 16.3442 13.8067C15.7415 12.9296 14.7273 12.3477 13.5801 12.3477H10.6165C9.46928 12.3477 8.45924 12.9255 7.85238 13.8067C7.51154 13.6363 7.12498 13.5407 6.71764 13.5407H4.57285C3.15546 13.5407 1.99994 14.6962 1.99994 16.1136V16.5749C1.99994 17.2109 2.51951 17.7305 3.15546 17.7305H8.13503C8.21816 17.7305 8.30129 17.7222 8.38026 17.7055C8.46755 17.7222 8.559 17.7305 8.65044 17.7305H15.542C15.6335 17.7305 15.7249 17.7222 15.8122 17.7055C15.8912 17.7222 15.9743 17.7305 16.0574 17.7305H21.037C21.673 17.7305 22.1925 17.2109 22.1925 16.5749V16.1136C22.1925 14.6962 21.037 13.5407 19.6196 13.5407ZM7.54895 17.186H3.15546C2.81878 17.186 2.54861 16.9158 2.54861 16.5791V16.1177C2.54861 14.9996 3.45474 14.0893 4.57701 14.0893H6.71764C7.02522 14.0893 7.32034 14.16 7.5822 14.2847C7.37853 14.717 7.2663 15.1991 7.2663 15.7062V16.3422C7.26215 16.6581 7.37022 16.949 7.54895 17.186ZM16.3858 16.3422C16.3858 16.8077 16.0076 17.1818 15.5462 17.1818H8.65044C8.18491 17.1818 7.81081 16.8036 7.81081 16.3422V15.7021C7.81081 14.1517 9.0661 12.8964 10.6165 12.8964H13.5801C15.1305 12.8964 16.3858 14.1517 16.3858 15.7021V16.3422ZM21.6439 16.5791C21.6439 16.9158 21.3737 17.186 21.037 17.186H16.6435C16.8222 16.9532 16.9303 16.6622 16.9303 16.3422V15.7021C16.9303 15.195 16.8139 14.7128 16.6144 14.2805C16.8763 14.1558 17.1714 14.0852 17.479 14.0852H19.6196C20.7377 14.0852 21.648 14.9913 21.648 16.1136V16.5791H21.6439ZM12.0962 11.7991C13.7713 11.7991 15.1305 10.4357 15.1305 8.76476C15.1305 7.09382 13.7672 5.73047 12.0962 5.73047C10.4253 5.73047 9.06194 7.09382 9.06194 8.76476C9.06194 10.4357 10.4211 11.7991 12.0962 11.7991ZM12.0962 6.27082C13.4721 6.27082 14.586 7.38478 14.586 8.7606C14.586 10.1364 13.4721 11.2504 12.0962 11.2504C10.7204 11.2504 9.60645 10.1364 9.60645 8.7606C9.60645 7.38478 10.7204 6.27082 12.0962 6.27082Z" fill="#4C4C4D" stroke="#4C4C4D" stroke-width="0.2"/>
</svg>
